<?xml version="1.0" encoding="UTF-8"?>
<!DOCTYPE svg PUBLIC "-//W3C//DTD SVG 1.1//EN" "http://www.w3.org/Graphics/SVG/1.1/DTD/svg11.dtd">
<svg xmlns="http://www.w3.org/2000/svg" version="1.1" width="500px" height="382px" style="shape-rendering:geometricPrecision; text-rendering:geometricPrecision; image-rendering:optimizeQuality; fill-rule:evenodd; clip-rule:evenodd" xmlns:xlink="http://www.w3.org/1999/xlink">
<g><path style="opacity:1" fill="#0266fe" d="M 5.5,-0.5 C 120.833,-0.5 236.167,-0.5 351.5,-0.5C 355.21,1.13566 359.21,1.80233 363.5,1.5C 366.428,1.56513 369.095,2.2318 371.5,3.5C 371.611,4.11742 371.944,4.61742 372.5,5C 374.81,5.49665 377.143,5.66331 379.5,5.5C 379.62,6.58617 380.287,7.25284 381.5,7.5C 385.366,9.10392 389.366,10.1039 393.5,10.5C 395.819,10.9925 397.819,11.9925 399.5,13.5C 399.119,15.9418 399.786,16.6085 401.5,15.5C 402.386,16.325 402.719,17.325 402.5,18.5C 405.167,18.8333 407.833,19.1667 410.5,19.5C 411.392,22.2921 413.392,23.6254 416.5,23.5C 416.5,24.5 416.5,25.5 416.5,26.5C 419.244,28.2009 422.244,29.5343 425.5,30.5C 425.833,30.5 426.167,30.5 426.5,30.5C 426.632,33.7967 428.298,35.4633 431.5,35.5C 431.525,38.179 432.858,39.5123 435.5,39.5C 435.525,42.179 436.858,43.5123 439.5,43.5C 439.738,45.4044 440.738,46.7377 442.5,47.5C 443.63,49.3146 444.296,51.3146 444.5,53.5C 442.645,53.272 441.812,53.9387 442,55.5C 444.06,55.1057 446.227,55.1057 448.5,55.5C 448.427,57.0269 449.094,58.0269 450.5,58.5C 450.338,60.5273 450.505,62.5273 451,64.5C 452.337,65.9045 453.503,67.4045 454.5,69C 453.057,71.0777 453.724,71.9111 456.5,71.5C 456.895,75.2973 458.562,78.2973 461.5,80.5C 461.5,80.8333 461.5,81.1667 461.5,81.5C 461.259,83.8984 461.926,85.8984 463.5,87.5C 464.434,88.5676 464.768,89.901 464.5,91.5C 465.242,103.495 465.409,115.495 465,127.5C 463.04,135.689 461.54,144.023 460.5,152.5C 460.672,153.492 460.338,154.158 459.5,154.5C 457.787,155.635 457.12,157.302 457.5,159.5C 457.5,159.833 457.5,160.167 457.5,160.5C 456.776,162.218 456.109,164.052 455.5,166C 456.449,166.617 457.282,166.451 458,165.5C 460.403,167.082 462.903,168.416 465.5,169.5C 465.731,172.063 467.065,173.73 469.5,174.5C 470.875,178.839 472.875,182.839 475.5,186.5C 476.905,187.994 478.571,188.994 480.5,189.5C 482.25,190.659 483.25,192.326 483.5,194.5C 483.427,196.027 484.094,197.027 485.5,197.5C 485.363,202.124 486.696,206.124 489.5,209.5C 490.989,213.323 492.656,216.99 494.5,220.5C 495.924,222.515 496.59,224.848 496.5,227.5C 496.206,240.945 496.206,254.112 496.5,267C 495.065,271.641 494.398,276.474 494.5,281.5C 494.5,282.833 494.5,284.167 494.5,285.5C 494.768,287.099 494.434,288.432 493.5,289.5C 491.175,290.655 490.008,292.655 490,295.5C 487.574,300.027 484.907,304.361 482,308.5C 481.506,310.134 481.34,311.801 481.5,313.5C 480.5,313.5 479.5,313.5 478.5,313.5C 478.5,315.167 478.5,316.833 478.5,318.5C 477.5,318.5 476.5,318.5 475.5,318.5C 475.5,319.833 475.5,321.167 475.5,322.5C 474.5,322.5 473.5,322.5 472.5,322.5C 472.5,323.833 472.5,325.167 472.5,326.5C 471.5,326.5 470.5,326.5 469.5,326.5C 469.5,328.167 469.5,329.833 469.5,331.5C 469.5,332.167 469.167,332.5 468.5,332.5C 467.167,332.5 465.833,332.5 464.5,332.5C 464.833,335.5 463.5,336.833 460.5,336.5C 460.5,338.167 460.5,339.833 460.5,341.5C 459.71,342.401 458.71,343.068 457.5,343.5C 455.143,343.337 452.81,343.503 450.5,344C 452.956,346.159 452.29,346.992 448.5,346.5C 448.297,349.233 447.297,351.566 445.5,353.5C 443.5,353.5 441.5,353.5 439.5,353.5C 439.5,354.5 439.5,355.5 439.5,356.5C 438.167,356.5 436.833,356.5 435.5,356.5C 435.567,357.959 435.234,359.292 434.5,360.5C 428.312,361.927 422.312,363.927 416.5,366.5C 416.5,367.5 416.5,368.5 416.5,369.5C 412.036,368.909 408.369,370.242 405.5,373.5C 404.791,374.404 403.791,374.737 402.5,374.5C 398.653,374.381 394.986,375.047 391.5,376.5C 380.497,377.426 369.497,378.426 358.5,379.5C 348.944,378.229 339.444,378.229 330,379.5C 327.241,378.677 324.407,378.01 321.5,377.5C 314.872,378.424 308.206,378.757 301.5,378.5C 299.485,377.076 297.152,376.41 294.5,376.5C 291.145,376.31 288.145,375.31 285.5,373.5C 281.843,369.298 277.176,366.965 271.5,366.5C 269.326,366.25 267.659,365.25 266.5,363.5C 264.998,361.825 263.665,359.992 262.5,358C 261.207,357.51 259.873,357.343 258.5,357.5C 258.027,356.094 257.027,355.427 255.5,355.5C 255.512,352.858 254.179,351.525 251.5,351.5C 249.833,350.5 248.5,349.167 247.5,347.5C 247.512,344.858 246.179,343.525 243.5,343.5C 243.167,342.833 242.833,342.167 242.5,341.5C 242.086,337.485 240.086,334.818 236.5,333.5C 236.371,330.13 234.705,328.13 231.5,327.5C 230.248,325.999 229.248,324.332 228.5,322.5C 228.092,318.542 226.092,315.875 222.5,314.5C 222.371,311.13 220.705,309.13 217.5,308.5C 217.5,308.167 217.5,307.833 217.5,307.5C 217.539,306.417 217.873,305.417 218.5,304.5C 217.675,303.614 216.675,303.281 215.5,303.5C 215.33,302.178 215.663,301.011 216.5,300C 213.266,297.584 209.933,295.417 206.5,293.5C 206.167,292.833 205.833,292.167 205.5,291.5C 205.496,289.158 204.663,287.158 203,285.5C 202.503,283.19 202.337,280.857 202.5,278.5C 203.5,277.833 204.5,277.167 205.5,276.5C 258.837,276.833 312.171,276.5 365.5,275.5C 367.078,274.702 368.744,274.202 370.5,274C 372.635,273.124 373.969,271.624 374.5,269.5C 377.958,269.586 379.958,267.919 380.5,264.5C 380.833,263.5 381.5,262.833 382.5,262.5C 383.75,262.423 384.583,261.756 385,260.5C 385.495,258.527 385.662,256.527 385.5,254.5C 386.147,253.726 386.48,252.726 386.5,251.5C 385.828,248.488 385.161,245.488 384.5,242.5C 383.5,242.5 382.5,242.5 381.5,242.5C 380.833,239.833 379.167,238.167 376.5,237.5C 376.586,236.504 376.252,235.671 375.5,235C 370.717,233.142 365.717,231.975 360.5,231.5C 310.166,231.667 259.832,231.5 209.5,231C 203.192,230.75 197.192,229.583 191.5,227.5C 188.495,225.723 185.162,224.723 181.5,224.5C 181.167,224.5 180.833,224.5 180.5,224.5C 176.443,220.307 171.443,217.973 165.5,217.5C 164.191,214.549 161.857,213.216 158.5,213.5C 158.027,212.094 157.027,211.427 155.5,211.5C 155.027,210.094 154.027,209.427 152.5,209.5C 151.738,207.738 150.404,206.738 148.5,206.5C 148.027,205.094 147.027,204.427 145.5,204.5C 141.167,200.833 137.167,196.833 133.5,192.5C 133.662,190.473 133.495,188.473 133,186.5C 132.586,186.957 132.086,187.291 131.5,187.5C 130.358,186.174 129.024,185.174 127.5,184.5C 127.446,182.368 126.446,181.035 124.5,180.5C 124.336,177.014 122.669,174.681 119.5,173.5C 119.249,171.83 118.582,170.33 117.5,169C 117.957,168.586 118.291,168.086 118.5,167.5C 115.705,164.026 112.372,161.359 108.5,159.5C 108.5,159.167 108.5,158.833 108.5,158.5C 108.286,156.856 108.62,155.356 109.5,154C 106.029,151.558 102.862,148.725 100,145.5C 99.4336,142.212 97.6002,140.212 94.5,139.5C 94.1449,137.11 93.4783,134.777 92.5,132.5C 92.3227,130.032 93.3227,128.365 95.5,127.5C 177.769,127.17 259.769,126.17 341.5,124.5C 344.491,124.834 346.824,123.834 348.5,121.5C 350.5,120.167 352.167,118.5 353.5,116.5C 355.103,112.717 353.77,110.384 349.5,109.5C 348.817,107.824 347.483,107.157 345.5,107.5C 345.586,106.504 345.252,105.671 344.5,105C 266.833,104.667 189.167,104.333 111.5,104C 107.974,102.663 104.308,102.163 100.5,102.5C 99.1667,102.5 97.8333,102.5 96.5,102.5C 91.2705,99.6132 85.6039,97.6132 79.5,96.5C 78.3933,94.0311 76.3933,93.0311 73.5,93.5C 71.847,93.3404 70.5137,92.6737 69.5,91.5C 69.0269,90.0937 68.0269,89.427 66.5,89.5C 66.0269,88.0937 65.0269,87.427 63.5,87.5C 63.0269,86.0937 62.0269,85.427 60.5,85.5C 59.0892,83.086 57.0892,81.4194 54.5,80.5C 53.7298,78.0646 52.0632,76.7313 49.5,76.5C 48.8785,72.9147 46.8785,70.5814 43.5,69.5C 43.6107,68.8826 43.944,68.3826 44.5,68C 42.7208,66.8596 41.0541,65.693 39.5,64.5C 38.9344,60.6433 36.9344,57.9766 33.5,56.5C 33.8174,53.4535 32.4841,51.7868 29.5,51.5C 29.5,51.1667 29.5,50.8333 29.5,50.5C 29.5858,49.5041 29.2524,48.6708 28.5,48C 29.1667,47.6667 29.8333,47.3333 30.5,47C 28.1141,44.6826 25.4475,42.8493 22.5,41.5C 22.4456,39.368 21.4456,38.0347 19.5,37.5C 19.7148,35.8212 19.0481,34.8212 17.5,34.5C 17.4456,32.368 16.4456,31.0347 14.5,30.5C 13.6295,27.8877 12.9628,25.221 12.5,22.5C 9.23405,22.5674 7.73405,20.9008 8,17.5C 6.67028,16.4178 5.17028,15.7512 3.5,15.5C 1.92635,14.0158 0.593015,12.3492 -0.5,10.5C -0.5,8.5 -0.5,6.5 -0.5,4.5C -0.166667,4.5 0.166667,4.5 0.5,4.5C 2.5,3.16667 4.16667,1.5 5.5,-0.5 Z"/></g>
<g><path style="opacity:0.784" fill="#87b5ef" d="M 3.5,-0.5 C 4.16667,-0.5 4.83333,-0.5 5.5,-0.5C 4.16667,1.5 2.5,3.16667 0.5,4.5C 1.07501,2.5887 2.07501,0.922032 3.5,-0.5 Z"/></g>
<g><path style="opacity:0.439" fill="#a4cdf7" d="M 351.5,-0.5 C 353.167,-0.5 354.833,-0.5 356.5,-0.5C 358.833,0.166667 361.167,0.833333 363.5,1.5C 359.21,1.80233 355.21,1.13566 351.5,-0.5 Z"/></g>
<g><path style="opacity:1" fill="#739ae7" d="M 371.5,3.5 C 374.428,3.56513 377.095,4.2318 379.5,5.5C 377.143,5.66331 374.81,5.49665 372.5,5C 371.944,4.61742 371.611,4.11742 371.5,3.5 Z"/></g>
<g><path style="opacity:1" fill="#7b99ea" d="M 379.5,5.5 C 384.534,6.39821 389.201,8.06488 393.5,10.5C 389.366,10.1039 385.366,9.10392 381.5,7.5C 380.287,7.25284 379.62,6.58617 379.5,5.5 Z"/></g>
<g><path style="opacity:1" fill="#6087ec" d="M 399.5,13.5 C 403.655,14.7417 407.322,16.7417 410.5,19.5C 407.833,19.1667 405.167,18.8333 402.5,18.5C 402.719,17.325 402.386,16.325 401.5,15.5C 399.786,16.6085 399.119,15.9418 399.5,13.5 Z"/></g>
<g><path style="opacity:1" fill="#5c85e3" d="M 410.5,19.5 C 412.882,20.3507 414.882,21.684 416.5,23.5C 413.392,23.6254 411.392,22.2921 410.5,19.5 Z"/></g>
<g><path style="opacity:1" fill="#547fe9" d="M 3.5,15.5 C 5.17028,15.7512 6.67028,16.4178 8,17.5C 7.73405,20.9008 9.23405,22.5674 12.5,22.5C 12.9628,25.221 13.6295,27.8877 14.5,30.5C 10.4788,25.8045 6.81217,20.8045 3.5,15.5 Z"/></g>
<g><path style="opacity:1" fill="#4a79e3" d="M 416.5,23.5 C 420.051,25.1108 423.051,27.4442 425.5,30.5C 422.244,29.5343 419.244,28.2009 416.5,26.5C 416.5,25.5 416.5,24.5 416.5,23.5 Z"/></g>
<g><path style="opacity:1" fill="#7299ec" d="M 14.5,30.5 C 16.4456,31.0347 17.4456,32.368 17.5,34.5C 16.0256,33.5637 15.0256,32.2303 14.5,30.5 Z"/></g>
<g><path style="opacity:1" fill="#5f89e1" d="M 426.5,30.5 C 428.5,31.8333 430.167,33.5 431.5,35.5C 428.298,35.4633 426.632,33.7967 426.5,30.5 Z"/></g>
<g><path style="opacity:1" fill="#6495e3" d="M 17.5,34.5 C 19.0481,34.8212 19.7148,35.8212 19.5,37.5C 18.5987,36.7095 17.9321,35.7095 17.5,34.5 Z"/></g>
<g><path style="opacity:1" fill="#81a5ee" d="M 19.5,37.5 C 21.4456,38.0347 22.4456,39.368 22.5,41.5C 21.0256,40.5637 20.0256,39.2303 19.5,37.5 Z"/></g>
<g><path style="opacity:1" fill="#4a7be3" d="M 431.5,35.5 C 433.167,36.5 434.5,37.8333 435.5,39.5C 432.858,39.5123 431.525,38.179 431.5,35.5 Z"/></g>
<g><path style="opacity:1" fill="#537fe0" d="M 435.5,39.5 C 437.167,40.5 438.5,41.8333 439.5,43.5C 436.858,43.5123 435.525,42.179 435.5,39.5 Z"/></g>
<g><path style="opacity:0.906" fill="#8bb5ec" d="M 439.5,43.5 C 441.262,44.2623 442.262,45.5956 442.5,47.5C 440.738,46.7377 439.738,45.4044 439.5,43.5 Z"/></g>
<g><path style="opacity:1" fill="#4578ed" d="M 22.5,41.5 C 25.4475,42.8493 28.1141,44.6826 30.5,47C 29.8333,47.3333 29.1667,47.6667 28.5,48C 29.2524,48.6708 29.5858,49.5041 29.5,50.5C 26.8154,47.8103 24.4821,44.8103 22.5,41.5 Z"/></g>
<g><path style="opacity:1" fill="#5c88e7" d="M 29.5,51.5 C 32.4841,51.7868 33.8174,53.4535 33.5,56.5C 31.9373,55.0552 30.604,53.3885 29.5,51.5 Z"/></g>
<g><path style="opacity:1" fill="#497af0" d="M 442.5,47.5 C 444.984,49.8003 446.984,52.4669 448.5,55.5C 446.227,55.1057 444.06,55.1057 442,55.5C 441.812,53.9387 442.645,53.272 444.5,53.5C 444.296,51.3146 443.63,49.3146 442.5,47.5 Z"/></g>
<g><path style="opacity:0.71" fill="#7aa8ec" d="M 448.5,55.5 C 449.906,55.9731 450.573,56.9731 450.5,58.5C 449.094,58.0269 448.427,57.0269 448.5,55.5 Z"/></g>
<g><path style="opacity:1" fill="#6f93e9" d="M 33.5,56.5 C 36.9344,57.9766 38.9344,60.6433 39.5,64.5C 37.1468,62.1401 35.1468,59.4735 33.5,56.5 Z"/></g>
<g><path style="opacity:1" fill="#6f93ea" d="M 39.5,64.5 C 41.0541,65.693 42.7208,66.8596 44.5,68C 43.944,68.3826 43.6107,68.8826 43.5,69.5C 41.457,68.4206 40.1237,66.754 39.5,64.5 Z"/></g>
<g><path style="opacity:1" fill="#6a8deb" d="M 43.5,69.5 C 46.8785,70.5814 48.8785,72.9147 49.5,76.5C 46.7805,74.7807 44.7805,72.4474 43.5,69.5 Z"/></g>
<g><path style="opacity:1" fill="#4277e8" d="M 450.5,58.5 C 455.202,65.2366 458.868,72.5699 461.5,80.5C 458.562,78.2973 456.895,75.2973 456.5,71.5C 453.724,71.9111 453.057,71.0777 454.5,69C 453.503,67.4045 452.337,65.9045 451,64.5C 450.505,62.5273 450.338,60.5273 450.5,58.5 Z"/></g>
<g><path style="opacity:0.78" fill="#7fa8ef" d="M 49.5,76.5 C 52.0632,76.7313 53.7298,78.0646 54.5,80.5C 52.2512,79.9202 50.5846,78.5869 49.5,76.5 Z"/></g>
<g><path style="opacity:0.749" fill="#8aaeed" d="M 54.5,80.5 C 57.0892,81.4194 59.0892,83.086 60.5,85.5C 57.9108,84.5806 55.9108,82.914 54.5,80.5 Z"/></g>
<g><path style="opacity:0.945" fill="#7ca3eb" d="M 60.5,85.5 C 62.0269,85.427 63.0269,86.0937 63.5,87.5C 61.9731,87.573 60.9731,86.9063 60.5,85.5 Z"/></g>
<g><path style="opacity:0.769" fill="#7fa5f0" d="M 461.5,81.5 C 463.074,83.1016 463.741,85.1016 463.5,87.5C 461.926,85.8984 461.259,83.8984 461.5,81.5 Z"/></g>
<g><path style="opacity:0.988" fill="#7aa5ed" d="M 63.5,87.5 C 65.0269,87.427 66.0269,88.0937 66.5,89.5C 64.9731,89.573 63.9731,88.9063 63.5,87.5 Z"/></g>
<g><path style="opacity:0.51" fill="#92bcf7" d="M 66.5,89.5 C 68.0269,89.427 69.0269,90.0937 69.5,91.5C 67.9731,91.573 66.9731,90.9063 66.5,89.5 Z"/></g>
<g><path style="opacity:1" fill="#5481e3" d="M 73.5,93.5 C 76.3933,93.0311 78.3933,94.0311 79.5,96.5C 77.1815,96.0075 75.1815,95.0075 73.5,93.5 Z"/></g>
<g><path style="opacity:1" fill="#5a85e2" d="M 79.5,96.5 C 85.6039,97.6132 91.2705,99.6132 96.5,102.5C 90.3335,101.668 84.6668,99.6683 79.5,96.5 Z"/></g>
<g><path style="opacity:0.514" fill="#9bbdf7" d="M 96.5,102.5 C 97.8333,102.5 99.1667,102.5 100.5,102.5C 101.5,103.167 102.5,103.833 103.5,104.5C 100.848,104.59 98.5145,103.924 96.5,102.5 Z"/></g>
<g><path style="opacity:1" fill="#4474e2" d="M 100.5,102.5 C 104.308,102.163 107.974,102.663 111.5,104C 189.167,104.333 266.833,104.667 344.5,105C 345.252,105.671 345.586,106.504 345.5,107.5C 267.522,106.678 189.522,106.178 111.5,106C 108.746,105.728 106.079,105.228 103.5,104.5C 102.5,103.833 101.5,103.167 100.5,102.5 Z"/></g>
<g><path style="opacity:1" fill="#729ceb" d="M 345.5,107.5 C 347.483,107.157 348.817,107.824 349.5,109.5C 347.847,109.34 346.514,108.674 345.5,107.5 Z"/></g>
<g><path style="opacity:0.541" fill="#92bef9" d="M 465.5,95.5 C 466.987,101.936 467.654,108.602 467.5,115.5C 467.499,120.013 467.166,124.347 466.5,128.5C 466.619,117.482 466.286,106.482 465.5,95.5 Z"/></g>
<g><path style="opacity:0.933" fill="#709ced" d="M 349.5,109.5 C 353.77,110.384 355.103,112.717 353.5,116.5C 352.937,113.705 351.604,111.372 349.5,109.5 Z"/></g>
<g><path style="opacity:1" fill="#82b1f5" d="M 348.5,121.5 C 346.824,123.834 344.491,124.834 341.5,124.5C 260.167,124.5 178.833,124.5 97.5,124.5C 179.332,123.667 261.332,123.167 343.5,123C 345.154,122.392 346.821,121.892 348.5,121.5 Z"/></g>
<g><path style="opacity:1" fill="#1064e5" d="M 97.5,124.5 C 178.833,124.5 260.167,124.5 341.5,124.5C 259.769,126.17 177.769,127.17 95.5,127.5C 95.5,126.833 95.5,126.167 95.5,125.5C 95.8417,124.662 96.5084,124.328 97.5,124.5 Z"/></g>
<g><path style="opacity:1" fill="#4f7be5" d="M 464.5,91.5 C 465.434,92.5676 465.768,93.901 465.5,95.5C 466.286,106.482 466.619,117.482 466.5,128.5C 466.044,136.991 464.044,144.991 460.5,152.5C 461.54,144.023 463.04,135.689 465,127.5C 465.409,115.495 465.242,103.495 464.5,91.5 Z"/></g>
<g><path style="opacity:0.91" fill="#638eea" d="M 95.5,125.5 C 95.5,126.167 95.5,126.833 95.5,127.5C 93.3227,128.365 92.3227,130.032 92.5,132.5C 93.4783,134.777 94.1449,137.11 94.5,139.5C 92.1716,137.834 91.1716,135.501 91.5,132.5C 91.2259,129.136 92.5592,126.803 95.5,125.5 Z"/></g>
<g><path style="opacity:1" fill="#507ee8" d="M 94.5,139.5 C 97.6002,140.212 99.4336,142.212 100,145.5C 102.862,148.725 106.029,151.558 109.5,154C 108.62,155.356 108.286,156.856 108.5,158.5C 103.113,152.738 98.4463,146.405 94.5,139.5 Z"/></g>
<g><path style="opacity:0.98" fill="#6f9ce9" d="M 459.5,154.5 C 459.598,156.553 458.931,158.22 457.5,159.5C 457.12,157.302 457.787,155.635 459.5,154.5 Z"/></g>
<g><path style="opacity:1" fill="#4a79eb" d="M 457.5,160.5 C 460.167,163.5 462.833,166.5 465.5,169.5C 462.903,168.416 460.403,167.082 458,165.5C 457.282,166.451 456.449,166.617 455.5,166C 456.109,164.052 456.776,162.218 457.5,160.5 Z"/></g>
<g><path style="opacity:1" fill="#769fe8" d="M 113.5,165.5 C 115.446,166.035 116.446,167.368 116.5,169.5C 115.026,168.564 114.026,167.23 113.5,165.5 Z"/></g>
<g><path style="opacity:1" fill="#4f7beb" d="M 108.5,159.5 C 112.372,161.359 115.705,164.026 118.5,167.5C 118.291,168.086 117.957,168.586 117.5,169C 118.582,170.33 119.249,171.83 119.5,173.5C 118.026,172.564 117.026,171.23 116.5,169.5C 116.446,167.368 115.446,166.035 113.5,165.5C 111.844,163.54 110.177,161.54 108.5,159.5 Z"/></g>
<g><path style="opacity:0.769" fill="#80a6eb" d="M 465.5,169.5 C 467.587,170.585 468.92,172.251 469.5,174.5C 467.065,173.73 465.731,172.063 465.5,169.5 Z"/></g>
<g><path style="opacity:1" fill="#5b87e9" d="M 119.5,173.5 C 122.669,174.681 124.336,177.014 124.5,180.5C 122.478,178.469 120.811,176.135 119.5,173.5 Z"/></g>
<g><path style="opacity:1" fill="#77a5e9" d="M 124.5,180.5 C 126.446,181.035 127.446,182.368 127.5,184.5C 126.026,183.564 125.026,182.23 124.5,180.5 Z"/></g>
<g><path style="opacity:1" fill="#5880e8" d="M 127.5,184.5 C 129.024,185.174 130.358,186.174 131.5,187.5C 132.086,187.291 132.586,186.957 133,186.5C 133.495,188.473 133.662,190.473 133.5,192.5C 131.147,190.14 129.147,187.473 127.5,184.5 Z"/></g>
<g><path style="opacity:1" fill="#4376eb" d="M 469.5,174.5 C 474.318,178.652 477.985,183.652 480.5,189.5C 478.571,188.994 476.905,187.994 475.5,186.5C 472.875,182.839 470.875,178.839 469.5,174.5 Z"/></g>
<g><path style="opacity:0.537" fill="#84b5f5" d="M 483.5,194.5 C 484.906,194.973 485.573,195.973 485.5,197.5C 484.094,197.027 483.427,196.027 483.5,194.5 Z"/></g>
<g><path style="opacity:0.82" fill="#95b5f2" d="M 145.5,204.5 C 147.027,204.427 148.027,205.094 148.5,206.5C 146.973,206.573 145.973,205.906 145.5,204.5 Z"/></g>
<g><path style="opacity:1" fill="#4575e8" d="M 485.5,197.5 C 487.625,200.088 488.958,203.088 489.5,206.5C 489.5,207.5 489.5,208.5 489.5,209.5C 486.696,206.124 485.363,202.124 485.5,197.5 Z"/></g>
<g><path style="opacity:1" fill="#7ca3eb" d="M 148.5,206.5 C 150.404,206.738 151.738,207.738 152.5,209.5C 150.596,209.262 149.262,208.262 148.5,206.5 Z"/></g>
<g><path style="opacity:0.945" fill="#80a3eb" d="M 152.5,209.5 C 154.027,209.427 155.027,210.094 155.5,211.5C 153.973,211.573 152.973,210.906 152.5,209.5 Z"/></g>
<g><path style="opacity:1" fill="#6c96e6" d="M 489.5,206.5 C 492.254,210.695 493.921,215.362 494.5,220.5C 492.656,216.99 490.989,213.323 489.5,209.5C 489.5,208.5 489.5,207.5 489.5,206.5 Z"/></g>
<g><path style="opacity:0.984" fill="#7ba1eb" d="M 155.5,211.5 C 157.027,211.427 158.027,212.094 158.5,213.5C 156.973,213.573 155.973,212.906 155.5,211.5 Z"/></g>
<g><path style="opacity:1" fill="#5b8ae3" d="M 158.5,213.5 C 161.857,213.216 164.191,214.549 165.5,217.5C 162.669,216.921 160.336,215.588 158.5,213.5 Z"/></g>
<g><path style="opacity:1" fill="#507fe8" d="M 165.5,217.5 C 171.443,217.973 176.443,220.307 180.5,224.5C 175.07,222.95 170.07,220.616 165.5,217.5 Z"/></g>
<g><path style="opacity:1" fill="#74a4f0" d="M 181.5,224.5 C 185.162,224.723 188.495,225.723 191.5,227.5C 187.838,227.277 184.505,226.277 181.5,224.5 Z"/></g>
<g><path style="opacity:1" fill="#6189e8" d="M 360.5,231.5 C 365.717,231.975 370.717,233.142 375.5,235C 376.252,235.671 376.586,236.504 376.5,237.5C 371.014,235.675 365.681,233.675 360.5,231.5 Z"/></g>
<g><path style="opacity:0.859" fill="#9cbbee" d="M 376.5,237.5 C 379.167,238.167 380.833,239.833 381.5,242.5C 379.5,241.167 377.833,239.5 376.5,237.5 Z"/></g>
<g><path style="opacity:1" fill="#6a90e9" d="M 381.5,242.5 C 382.5,242.5 383.5,242.5 384.5,242.5C 385.161,245.488 385.828,248.488 386.5,251.5C 386.48,252.726 386.147,253.726 385.5,254.5C 385.287,250.062 383.953,246.062 381.5,242.5 Z"/></g>
<g><path style="opacity:1" fill="#3e71ed" d="M 496.5,227.5 C 497.989,231.236 498.656,235.236 498.5,239.5C 498.593,250.85 498.259,262.183 497.5,273.5C 497.675,275.621 497.341,277.621 496.5,279.5C 495.833,280.167 495.167,280.833 494.5,281.5C 494.398,276.474 495.065,271.641 496.5,267C 496.206,254.112 496.206,240.945 496.5,227.5 Z"/></g>
<g><path style="opacity:1" fill="#628ae6" d="M 385.5,254.5 C 385.662,256.527 385.495,258.527 385,260.5C 384.583,261.756 383.75,262.423 382.5,262.5C 383.512,259.743 384.512,257.076 385.5,254.5 Z"/></g>
<g><path style="opacity:0.643" fill="#89baf5" d="M 498.5,239.5 C 498.833,239.5 499.167,239.5 499.5,239.5C 499.5,248.167 499.5,256.833 499.5,265.5C 498.833,268.167 498.167,270.833 497.5,273.5C 498.259,262.183 498.593,250.85 498.5,239.5 Z"/></g>
<g><path style="opacity:1" fill="#5584e7" d="M 380.5,264.5 C 379.958,267.919 377.958,269.586 374.5,269.5C 376.475,267.863 378.475,266.196 380.5,264.5 Z"/></g>
<g><path style="opacity:1" fill="#6e9ada" d="M 362.5,273.5 C 362.082,274.222 361.416,274.722 360.5,275C 308.834,275.5 257.168,275.667 205.5,275.5C 206.263,274.732 207.263,274.232 208.5,274C 259.832,273.5 311.166,273.333 362.5,273.5 Z"/></g>
<g><path style="opacity:1" fill="#1a65eb" d="M 374.5,269.5 C 373.969,271.624 372.635,273.124 370.5,274C 368.744,274.202 367.078,274.702 365.5,275.5C 312.171,276.5 258.837,276.833 205.5,276.5C 205.5,276.167 205.5,275.833 205.5,275.5C 257.168,275.667 308.834,275.5 360.5,275C 361.416,274.722 362.082,274.222 362.5,273.5C 366.699,272.732 370.699,271.399 374.5,269.5 Z"/></g>
<g><path style="opacity:0.694" fill="#88adef" d="M 205.5,275.5 C 205.5,275.833 205.5,276.167 205.5,276.5C 204.5,277.167 203.5,277.833 202.5,278.5C 202.5,276.5 203.5,275.5 205.5,275.5 Z"/></g>
<g><path style="opacity:0.69" fill="#8ab6f4" d="M 496.5,279.5 C 496.405,281.786 495.738,283.786 494.5,285.5C 494.5,284.167 494.5,282.833 494.5,281.5C 495.167,280.833 495.833,280.167 496.5,279.5 Z"/></g>
<g><path style="opacity:1" fill="#6e90e6" d="M 202.5,278.5 C 202.337,280.857 202.503,283.19 203,285.5C 204.663,287.158 205.496,289.158 205.5,291.5C 200.52,287.921 199.52,283.588 202.5,278.5 Z"/></g>
<g><path style="opacity:1" fill="#4877ec" d="M 206.5,293.5 C 209.933,295.417 213.266,297.584 216.5,300C 215.663,301.011 215.33,302.178 215.5,303.5C 216.675,303.281 217.675,303.614 218.5,304.5C 217.873,305.417 217.539,306.417 217.5,307.5C 213.844,302.872 210.178,298.206 206.5,293.5 Z"/></g>
<g><path style="opacity:1" fill="#7196e7" d="M 217.5,308.5 C 220.705,309.13 222.371,311.13 222.5,314.5C 220.844,312.54 219.177,310.54 217.5,308.5 Z"/></g>
<g><path style="opacity:1" fill="#5982e4" d="M 222.5,314.5 C 226.092,315.875 228.092,318.542 228.5,322.5C 226.147,320.14 224.147,317.473 222.5,314.5 Z"/></g>
<g><path style="opacity:1" fill="#5c84ec" d="M 493.5,289.5 C 488.578,305.355 480.578,319.355 469.5,331.5C 469.5,329.833 469.5,328.167 469.5,326.5C 470.5,326.5 471.5,326.5 472.5,326.5C 472.5,325.167 472.5,323.833 472.5,322.5C 473.5,322.5 474.5,322.5 475.5,322.5C 475.5,321.167 475.5,319.833 475.5,318.5C 476.5,318.5 477.5,318.5 478.5,318.5C 478.5,316.833 478.5,315.167 478.5,313.5C 479.5,313.5 480.5,313.5 481.5,313.5C 481.34,311.801 481.506,310.134 482,308.5C 484.907,304.361 487.574,300.027 490,295.5C 490.008,292.655 491.175,290.655 493.5,289.5 Z"/></g>
<g><path style="opacity:1" fill="#6d8ee6" d="M 231.5,327.5 C 234.705,328.13 236.371,330.13 236.5,333.5C 234.844,331.54 233.177,329.54 231.5,327.5 Z"/></g>
<g><path style="opacity:1" fill="#5d85e6" d="M 236.5,333.5 C 240.086,334.818 242.086,337.485 242.5,341.5C 240.147,339.14 238.147,336.473 236.5,333.5 Z"/></g>
<g><path style="opacity:1" fill="#688cec" d="M 468.5,332.5 C 466.528,336.105 463.861,339.105 460.5,341.5C 460.5,339.833 460.5,338.167 460.5,336.5C 463.5,336.833 464.833,335.5 464.5,332.5C 465.833,332.5 467.167,332.5 468.5,332.5 Z"/></g>
<g><path style="opacity:1" fill="#5f88ed" d="M 457.5,343.5 C 453.909,347.299 449.909,350.633 445.5,353.5C 447.297,351.566 448.297,349.233 448.5,346.5C 452.29,346.992 452.956,346.159 450.5,344C 452.81,343.503 455.143,343.337 457.5,343.5 Z"/></g>
<g><path style="opacity:1" fill="#6d91ea" d="M 243.5,343.5 C 246.179,343.525 247.512,344.858 247.5,347.5C 245.833,346.5 244.5,345.167 243.5,343.5 Z"/></g>
<g><path style="opacity:1" fill="#5981e5" d="M 251.5,351.5 C 254.179,351.525 255.512,352.858 255.5,355.5C 253.833,354.5 252.5,353.167 251.5,351.5 Z"/></g>
<g><path style="opacity:0.816" fill="#94b1ed" d="M 255.5,355.5 C 257.027,355.427 258.027,356.094 258.5,357.5C 256.973,357.573 255.973,356.906 255.5,355.5 Z"/></g>
<g><path style="opacity:1" fill="#6c8deb" d="M 445.5,353.5 C 442.106,356.221 438.439,358.554 434.5,360.5C 435.234,359.292 435.567,357.959 435.5,356.5C 436.833,356.5 438.167,356.5 439.5,356.5C 439.5,355.5 439.5,354.5 439.5,353.5C 441.5,353.5 443.5,353.5 445.5,353.5 Z"/></g>
<g><path style="opacity:1" fill="#5781e8" d="M 258.5,357.5 C 259.873,357.343 261.207,357.51 262.5,358C 263.665,359.992 264.998,361.825 266.5,363.5C 263.467,361.984 260.8,359.984 258.5,357.5 Z"/></g>
<g><path style="opacity:1" fill="#678bee" d="M 434.5,360.5 C 429.097,364.535 423.097,367.535 416.5,369.5C 416.5,368.5 416.5,367.5 416.5,366.5C 422.312,363.927 428.312,361.927 434.5,360.5 Z"/></g>
<g><path style="opacity:1" fill="#5982e8" d="M 271.5,366.5 C 277.176,366.965 281.843,369.298 285.5,373.5C 280.236,372.201 275.569,369.868 271.5,366.5 Z"/></g>
<g><path style="opacity:1" fill="#628de5" d="M 416.5,369.5 C 413.203,371.601 409.537,372.935 405.5,373.5C 408.369,370.242 412.036,368.909 416.5,369.5 Z"/></g>
<g><path style="opacity:1" fill="#82a2f0" d="M 402.5,374.5 C 399.146,376.258 395.479,377.258 391.5,377.5C 391.5,377.167 391.5,376.833 391.5,376.5C 394.986,375.047 398.653,374.381 402.5,374.5 Z"/></g>
<g><path style="opacity:0.776" fill="#7ea8f4" d="M 294.5,376.5 C 297.152,376.41 299.485,377.076 301.5,378.5C 298.848,378.59 296.515,377.924 294.5,376.5 Z"/></g>
<g><path style="opacity:1" fill="#3a74f1" d="M 391.5,376.5 C 391.5,376.833 391.5,377.167 391.5,377.5C 388.091,378.903 384.425,379.57 380.5,379.5C 374.931,379.376 369.598,380.043 364.5,381.5C 347.5,381.5 330.5,381.5 313.5,381.5C 309.429,380.823 305.429,379.823 301.5,378.5C 308.206,378.757 314.872,378.424 321.5,377.5C 324.407,378.01 327.241,378.677 330,379.5C 339.444,378.229 348.944,378.229 358.5,379.5C 369.497,378.426 380.497,377.426 391.5,376.5 Z"/></g>
<g><path style="opacity:0.016" fill="#9ed4f9" d="M 380.5,379.5 C 378.167,380.167 375.833,380.833 373.5,381.5C 370.5,381.5 367.5,381.5 364.5,381.5C 369.598,380.043 374.931,379.376 380.5,379.5 Z"/></g>
</svg>
